<?xml version="1.0" standalone="no"?>
<!DOCTYPE svg PUBLIC "-//W3C//DTD SVG 20010904//EN"
 "http://www.w3.org/TR/2001/REC-SVG-20010904/DTD/svg10.dtd">
<svg version="1.0" xmlns="http://www.w3.org/2000/svg"
 width="360.000000pt" height="360.000000pt" viewBox="0 0 360.000000 360.000000"
 preserveAspectRatio="xMidYMid meet">
<metadata>
Created by potrace 1.14, written by Peter Selinger 2001-2017
</metadata>
<g transform="translate(0.000000,360.000000) scale(0.100000,-0.100000)"
fill="#000000" stroke="none">
<path d="M1595 3590 c-148 -22 -145 -22 -270 -55 -211 -56 -400 -149 -615
-302 -133 -95 -310 -286 -422 -458 -121 -186 -224 -440 -254 -631 -3 -21 -7
-41 -9 -44 -24 -40 -25 -457 -2 -585 23 -124 23 -124 47 -210 100 -355 326
-691 620 -922 225 -176 507 -302 790 -353 134 -25 414 -35 520 -20 152 22 149
21 274 55 215 57 400 148 616 302 83 59 231 204 310 303 177 222 295 466 353
730 36 158 41 212 42 385 0 176 -9 274 -36 393 -41 181 -59 233 -150 427 -36
78 -125 219 -192 303 -123 156 -284 303 -445 407 -71 46 -277 152 -310 161 -9
2 -57 18 -106 34 -88 31 -194 56 -271 66 -22 3 -47 8 -55 11 -23 9 -379 11
-435 3z"/>
</g>
</svg>
